<svg width="30" height="28" viewBox="0 0 30 28" fill="none" xmlns="http://www.w3.org/2000/svg">
<g filter="url(#filter0_d_1931_142)">
<path d="M13.9718 1.70846C14.4382 0.933481 15.5618 0.933482 16.0282 1.70847L18.3586 5.58087C18.5262 5.85928 18.7995 6.05784 19.116 6.13116L23.5191 7.15091C24.4002 7.35499 24.7474 8.42356 24.1545 9.10661L21.1918 12.5196C20.9788 12.765 20.8744 13.0863 20.9025 13.41L21.2932 17.9127C21.3714 18.8138 20.4625 19.4742 19.6296 19.1214L15.4681 17.3583C15.1689 17.2316 14.8311 17.2316 14.5319 17.3583L10.3704 19.1214C9.53754 19.4742 8.62856 18.8138 8.70677 17.9127L9.09754 13.41C9.12563 13.0863 9.02124 12.765 8.80823 12.5196L5.8455 9.1066C5.25257 8.42356 5.59977 7.35499 6.48095 7.15091L10.884 6.13116C11.2005 6.05784 11.4738 5.85928 11.6414 5.58087L13.9718 1.70846Z" fill="#5E96FC"/>
<path d="M13.9718 1.70846C14.4382 0.933481 15.5618 0.933482 16.0282 1.70847L18.3586 5.58087C18.5262 5.85928 18.7995 6.05784 19.116 6.13116L23.5191 7.15091C24.4002 7.35499 24.7474 8.42356 24.1545 9.10661L21.1918 12.5196C20.9788 12.765 20.8744 13.0863 20.9025 13.41L21.2932 17.9127C21.3714 18.8138 20.4625 19.4742 19.6296 19.1214L15.4681 17.3583C15.1689 17.2316 14.8311 17.2316 14.5319 17.3583L10.3704 19.1214C9.53754 19.4742 8.62856 18.8138 8.70677 17.9127L9.09754 13.41C9.12563 13.0863 9.02124 12.765 8.80823 12.5196L5.8455 9.1066C5.25257 8.42356 5.59977 7.35499 6.48095 7.15091L10.884 6.13116C11.2005 6.05784 11.4738 5.85928 11.6414 5.58087L13.9718 1.70846Z" stroke="#5E96FC" stroke-width="1.5"/>
</g>
<defs>
<filter id="filter0_d_1931_142" x="0.800217" y="0.377228" width="28.3996" height="27.5918" filterUnits="userSpaceOnUse" color-interpolation-filters="sRGB">
<feFlood flood-opacity="0" result="BackgroundImageFix"/>
<feColorMatrix in="SourceAlpha" type="matrix" values="0 0 0 0 0 0 0 0 0 0 0 0 0 0 0 0 0 0 127 0" result="hardAlpha"/>
<feOffset dy="4"/>
<feGaussianBlur stdDeviation="2"/>
<feComposite in2="hardAlpha" operator="out"/>
<feColorMatrix type="matrix" values="0 0 0 0 0 0 0 0 0 0 0 0 0 0 0 0 0 0 0.25 0"/>
<feBlend mode="normal" in2="BackgroundImageFix" result="effect1_dropShadow_1931_142"/>
<feBlend mode="normal" in="SourceGraphic" in2="effect1_dropShadow_1931_142" result="shape"/>
</filter>
</defs>
</svg>
